<?xml version="1.0" encoding="UTF-8" standalone="no"?>
<!DOCTYPE svg PUBLIC "-//W3C//DTD SVG 1.1//EN" "http://www.w3.org/Graphics/SVG/1.1/DTD/svg11.dtd">
<svg width="100%" height="100%" viewBox="0 0 151 60" version="1.1" xmlns="http://www.w3.org/2000/svg" xmlns:xlink="http://www.w3.org/1999/xlink" xml:space="preserve" xmlns:serif="http://www.serif.com/" style="fill-rule:evenodd;clip-rule:evenodd;stroke-linecap:round;stroke-linejoin:round;stroke-miterlimit:1;">
    <g transform="matrix(1,0,0,1,-1090.82,-2606.93)">
        <rect x="1090.82" y="2606.93" width="150.782" height="59.276" style="fill:none;"/>
        <clipPath id="_clip1">
            <rect x="1090.82" y="2606.93" width="150.782" height="59.276"/>
        </clipPath>
        <g clip-path="url(#_clip1)">
            <g transform="matrix(0.002359,0,0,0.00235333,1136.41,2616.76)">
                <path d="M1176,10102L1176,-1763C-852,-2091 -2870,-2306 -4875,-2394L-4875,-4020L-8460,-4020L-8460,-2412C-10490,-2341 -12506,-2130 -14509,-1763L-14509,10343L-14509,3111C-14509,1593 -12972,1702 -12972,2984L-12970,10110L-11725,9963L-11730,2852C-11731,1261 -9300,1331 -9234,2733L-9232,9768L-8184,9722L-8190,2532C-8191,1056 -5118,981 -5117,2532L-5117,9688L-4071,9724L-4074,2733C-4075,1404 -1578,1432 -1577,2852L-1581,9854L-326,9953L-337,2984C-339,1808 1176,1962 1176,3102L1176,10102Z" style="fill:none;stroke:black;stroke-width:394.47px;"/>
            </g>
            <g transform="matrix(0.002359,0,0,0.00235333,1196.2,2667.88)">
                <path d="M-9443,-8670L-9443,-21071L-2846,-19755L-2846,-6437" style="fill:none;stroke:black;stroke-width:394.47px;"/>
            </g>
            <g transform="matrix(0.002359,0,0,0.00235333,1233.79,2681.14)">
                <path d="M-2854,-7627L-2846,-19755L-9443,-21071L-9406,-9136" style="fill:none;stroke:black;stroke-width:394.47px;"/>
            </g>
            <g transform="matrix(0.002359,0,0,0.00235333,1215.04,2676.92)">
                <path d="M-9467,-9697L-9443,-21071L-2846,-19755L-2778,-7703" style="fill:none;stroke:black;stroke-width:394.47px;"/>
            </g>
            <g transform="matrix(0.002359,0,0,0.00235333,24820.6,59205)">
                <path d="M-1.00584e+07,-2.40315e+07L-1.00578e+07,-2.40315e+07C-1.00573e+07,-2.40315e+07 -1.00571e+07,-2.40318e+07 -1.00571e+07,-2.40321e+07C-1.00571e+07,-2.40324e+07 -1.00573e+07,-2.40326e+07 -1.00575e+07,-2.40326e+07L-1.00575e+07,-2.40326e+07C-1.00573e+07,-2.40327e+07 -1.00572e+07,-2.40329e+07 -1.00572e+07,-2.40331e+07C-1.00572e+07,-2.40334e+07 -1.00574e+07,-2.40336e+07 -1.00578e+07,-2.40336e+07L-1.00584e+07,-2.40336e+07L-1.00584e+07,-2.40315e+07ZM-1.00582e+07,-2.40325e+07L-1.00578e+07,-2.40325e+07C-1.00575e+07,-2.40325e+07 -1.00574e+07,-2.40324e+07 -1.00574e+07,-2.40321e+07C-1.00574e+07,-2.40319e+07 -1.00575e+07,-2.40318e+07 -1.00578e+07,-2.40318e+07L-1.00582e+07,-2.40318e+07L-1.00582e+07,-2.40325e+07ZM-1.00582e+07,-2.40334e+07L-1.00578e+07,-2.40334e+07C-1.00576e+07,-2.40334e+07 -1.00575e+07,-2.40333e+07 -1.00575e+07,-2.4033e+07C-1.00575e+07,-2.40328e+07 -1.00576e+07,-2.40327e+07 -1.00578e+07,-2.40327e+07L-1.00582e+07,-2.40327e+07L-1.00582e+07,-2.40334e+07Z" style="fill-rule:nonzero;"/>
            </g>
            <g transform="matrix(0.002359,0,0,0.00235333,24824.7,59205)">
                <path d="M-1.00583e+07,-2.40326e+07C-1.00583e+07,-2.40328e+07 -1.00582e+07,-2.4033e+07 -1.0058e+07,-2.4033e+07C-1.00577e+07,-2.4033e+07 -1.00576e+07,-2.40328e+07 -1.00576e+07,-2.40326e+07L-1.00576e+07,-2.40322e+07C-1.00576e+07,-2.40319e+07 -1.00577e+07,-2.40317e+07 -1.0058e+07,-2.40317e+07C-1.00582e+07,-2.40317e+07 -1.00583e+07,-2.40319e+07 -1.00583e+07,-2.40322e+07L-1.00583e+07,-2.40326e+07ZM-1.00585e+07,-2.40321e+07C-1.00585e+07,-2.40318e+07 -1.00584e+07,-2.40315e+07 -1.0058e+07,-2.40315e+07C-1.00575e+07,-2.40315e+07 -1.00574e+07,-2.40317e+07 -1.00574e+07,-2.40321e+07L-1.00574e+07,-2.40326e+07C-1.00574e+07,-2.4033e+07 -1.00575e+07,-2.40332e+07 -1.0058e+07,-2.40332e+07C-1.00584e+07,-2.40332e+07 -1.00585e+07,-2.4033e+07 -1.00585e+07,-2.40326e+07L-1.00585e+07,-2.40321e+07Z" style="fill-rule:nonzero;"/>
            </g>
            <g transform="matrix(0.002359,0,0,0.00235333,24828.2,59205)">
                <path d="M-1.00581e+07,-2.40317e+07C-1.00582e+07,-2.40317e+07 -1.00584e+07,-2.40318e+07 -1.00585e+07,-2.40319e+07L-1.00586e+07,-2.40317e+07C-1.00585e+07,-2.40316e+07 -1.00583e+07,-2.40315e+07 -1.00581e+07,-2.40315e+07C-1.00577e+07,-2.40315e+07 -1.00575e+07,-2.40317e+07 -1.00575e+07,-2.4032e+07C-1.00575e+07,-2.40324e+07 -1.00577e+07,-2.40324e+07 -1.0058e+07,-2.40325e+07C-1.00582e+07,-2.40325e+07 -1.00583e+07,-2.40326e+07 -1.00583e+07,-2.40327e+07C-1.00583e+07,-2.40329e+07 -1.00582e+07,-2.4033e+07 -1.0058e+07,-2.4033e+07C-1.00579e+07,-2.4033e+07 -1.00578e+07,-2.40329e+07 -1.00577e+07,-2.40329e+07L-1.00576e+07,-2.40331e+07C-1.00577e+07,-2.40331e+07 -1.00579e+07,-2.40332e+07 -1.0058e+07,-2.40332e+07C-1.00583e+07,-2.40332e+07 -1.00586e+07,-2.4033e+07 -1.00586e+07,-2.40327e+07C-1.00586e+07,-2.40324e+07 -1.00583e+07,-2.40324e+07 -1.00581e+07,-2.40323e+07C-1.00579e+07,-2.40322e+07 -1.00577e+07,-2.40322e+07 -1.00577e+07,-2.4032e+07C-1.00577e+07,-2.40318e+07 -1.00578e+07,-2.40317e+07 -1.00581e+07,-2.40317e+07Z" style="fill-rule:nonzero;"/>
            </g>
            <g transform="matrix(0.002359,0,0,0.00235333,24831.3,59205)">
                <path d="M-1.00581e+07,-2.4033e+07L-1.00577e+07,-2.4033e+07L-1.00577e+07,-2.40332e+07L-1.00581e+07,-2.40332e+07L-1.00581e+07,-2.40335e+07L-1.00583e+07,-2.40335e+07L-1.00583e+07,-2.40332e+07L-1.00586e+07,-2.40331e+07L-1.00586e+07,-2.4033e+07L-1.00583e+07,-2.4033e+07L-1.00583e+07,-2.4032e+07C-1.00583e+07,-2.40317e+07 -1.00582e+07,-2.40315e+07 -1.00579e+07,-2.40315e+07C-1.00578e+07,-2.40315e+07 -1.00577e+07,-2.40316e+07 -1.00576e+07,-2.40316e+07L-1.00576e+07,-2.40318e+07C-1.00577e+07,-2.40318e+07 -1.00578e+07,-2.40318e+07 -1.00579e+07,-2.40318e+07C-1.00581e+07,-2.40318e+07 -1.00581e+07,-2.40318e+07 -1.00581e+07,-2.4032e+07L-1.00581e+07,-2.4033e+07Z" style="fill-rule:nonzero;"/>
            </g>
            <g transform="matrix(0.002359,0,0,0.00235333,24834.1,59205)">
                <path d="M-1.00576e+07,-2.40326e+07C-1.0058e+07,-2.40326e+07 -1.00585e+07,-2.40325e+07 -1.00585e+07,-2.4032e+07C-1.00585e+07,-2.40317e+07 -1.00584e+07,-2.40315e+07 -1.0058e+07,-2.40315e+07C-1.00578e+07,-2.40315e+07 -1.00577e+07,-2.40316e+07 -1.00576e+07,-2.40317e+07L-1.00576e+07,-2.40315e+07L-1.00574e+07,-2.40315e+07L-1.00574e+07,-2.40326e+07C-1.00574e+07,-2.4033e+07 -1.00576e+07,-2.40332e+07 -1.0058e+07,-2.40332e+07C-1.00581e+07,-2.40332e+07 -1.00583e+07,-2.40332e+07 -1.00585e+07,-2.40331e+07L-1.00584e+07,-2.40329e+07C-1.00583e+07,-2.40329e+07 -1.00581e+07,-2.4033e+07 -1.0058e+07,-2.4033e+07C-1.00577e+07,-2.4033e+07 -1.00576e+07,-2.40329e+07 -1.00576e+07,-2.40327e+07L-1.00576e+07,-2.40326e+07ZM-1.0058e+07,-2.40317e+07C-1.00582e+07,-2.40317e+07 -1.00583e+07,-2.40318e+07 -1.00583e+07,-2.4032e+07C-1.00583e+07,-2.40323e+07 -1.00579e+07,-2.40324e+07 -1.00576e+07,-2.40324e+07L-1.00576e+07,-2.40319e+07C-1.00577e+07,-2.40318e+07 -1.00578e+07,-2.40317e+07 -1.0058e+07,-2.40317e+07Z" style="fill-rule:nonzero;"/>
            </g>
            <g transform="matrix(0.002359,0,0,0.00235333,24837.7,59205)">
                <path d="M-1.00574e+07,-2.40338e+07L-1.00576e+07,-2.40338e+07L-1.00576e+07,-2.4033e+07C-1.00577e+07,-2.40331e+07 -1.00578e+07,-2.40332e+07 -1.0058e+07,-2.40332e+07C-1.00584e+07,-2.40332e+07 -1.00585e+07,-2.4033e+07 -1.00585e+07,-2.40326e+07L-1.00585e+07,-2.40321e+07C-1.00585e+07,-2.40317e+07 -1.00584e+07,-2.40315e+07 -1.0058e+07,-2.40315e+07C-1.00578e+07,-2.40315e+07 -1.00577e+07,-2.40316e+07 -1.00576e+07,-2.40317e+07L-1.00576e+07,-2.40315e+07L-1.00574e+07,-2.40315e+07L-1.00574e+07,-2.40338e+07ZM-1.00576e+07,-2.40319e+07C-1.00577e+07,-2.40318e+07 -1.00578e+07,-2.40317e+07 -1.0058e+07,-2.40317e+07C-1.00582e+07,-2.40317e+07 -1.00583e+07,-2.40319e+07 -1.00583e+07,-2.40322e+07L-1.00583e+07,-2.40326e+07C-1.00583e+07,-2.40328e+07 -1.00582e+07,-2.4033e+07 -1.0058e+07,-2.4033e+07C-1.00578e+07,-2.4033e+07 -1.00577e+07,-2.40329e+07 -1.00576e+07,-2.40328e+07L-1.00576e+07,-2.40319e+07Z" style="fill-rule:nonzero;"/>
            </g>
            <g transform="matrix(0.002359,0,0,0.00235333,24841.4,59205)">
                <path d="M-1.00581e+07,-2.40317e+07C-1.00582e+07,-2.40317e+07 -1.00584e+07,-2.40318e+07 -1.00585e+07,-2.40319e+07L-1.00586e+07,-2.40317e+07C-1.00585e+07,-2.40316e+07 -1.00583e+07,-2.40315e+07 -1.00581e+07,-2.40315e+07C-1.00577e+07,-2.40315e+07 -1.00575e+07,-2.40317e+07 -1.00575e+07,-2.4032e+07C-1.00575e+07,-2.40324e+07 -1.00577e+07,-2.40324e+07 -1.0058e+07,-2.40325e+07C-1.00582e+07,-2.40325e+07 -1.00583e+07,-2.40326e+07 -1.00583e+07,-2.40327e+07C-1.00583e+07,-2.40329e+07 -1.00582e+07,-2.4033e+07 -1.0058e+07,-2.4033e+07C-1.00579e+07,-2.4033e+07 -1.00578e+07,-2.40329e+07 -1.00577e+07,-2.40329e+07L-1.00576e+07,-2.40331e+07C-1.00577e+07,-2.40331e+07 -1.00579e+07,-2.40332e+07 -1.0058e+07,-2.40332e+07C-1.00583e+07,-2.40332e+07 -1.00586e+07,-2.4033e+07 -1.00586e+07,-2.40327e+07C-1.00586e+07,-2.40324e+07 -1.00583e+07,-2.40324e+07 -1.00581e+07,-2.40323e+07C-1.00579e+07,-2.40322e+07 -1.00577e+07,-2.40322e+07 -1.00577e+07,-2.4032e+07C-1.00577e+07,-2.40318e+07 -1.00578e+07,-2.40317e+07 -1.00581e+07,-2.40317e+07Z" style="fill-rule:nonzero;"/>
            </g>
            <g transform="matrix(0.002359,0,0,0.00235333,24844.4,59205)">
                <path d="M-1.00578e+07,-2.4033e+07C-1.00578e+07,-2.4033e+07 -1.00578e+07,-2.4033e+07 -1.00577e+07,-2.40329e+07L-1.00577e+07,-2.40332e+07C-1.00577e+07,-2.40332e+07 -1.00578e+07,-2.40332e+07 -1.00578e+07,-2.40332e+07C-1.0058e+07,-2.40332e+07 -1.00582e+07,-2.4033e+07 -1.00583e+07,-2.40329e+07L-1.00583e+07,-2.40332e+07L-1.00585e+07,-2.40332e+07L-1.00585e+07,-2.40315e+07L-1.00582e+07,-2.40315e+07L-1.00582e+07,-2.40327e+07C-1.00582e+07,-2.40328e+07 -1.0058e+07,-2.4033e+07 -1.00578e+07,-2.4033e+07Z" style="fill-rule:nonzero;"/>
            </g>
            <g transform="matrix(0.002359,0,0,0.00235333,24847,59205)">
                <path d="M-1.00576e+07,-2.40326e+07C-1.0058e+07,-2.40326e+07 -1.00585e+07,-2.40325e+07 -1.00585e+07,-2.4032e+07C-1.00585e+07,-2.40317e+07 -1.00584e+07,-2.40315e+07 -1.0058e+07,-2.40315e+07C-1.00578e+07,-2.40315e+07 -1.00577e+07,-2.40316e+07 -1.00576e+07,-2.40317e+07L-1.00576e+07,-2.40315e+07L-1.00574e+07,-2.40315e+07L-1.00574e+07,-2.40326e+07C-1.00574e+07,-2.4033e+07 -1.00576e+07,-2.40332e+07 -1.0058e+07,-2.40332e+07C-1.00581e+07,-2.40332e+07 -1.00583e+07,-2.40332e+07 -1.00585e+07,-2.40331e+07L-1.00584e+07,-2.40329e+07C-1.00583e+07,-2.40329e+07 -1.00581e+07,-2.4033e+07 -1.0058e+07,-2.4033e+07C-1.00577e+07,-2.4033e+07 -1.00576e+07,-2.40329e+07 -1.00576e+07,-2.40327e+07L-1.00576e+07,-2.40326e+07ZM-1.0058e+07,-2.40317e+07C-1.00582e+07,-2.40317e+07 -1.00583e+07,-2.40318e+07 -1.00583e+07,-2.4032e+07C-1.00583e+07,-2.40323e+07 -1.00579e+07,-2.40324e+07 -1.00576e+07,-2.40324e+07L-1.00576e+07,-2.40319e+07C-1.00577e+07,-2.40318e+07 -1.00578e+07,-2.40317e+07 -1.0058e+07,-2.40317e+07ZM-1.00583e+07,-2.40334e+07L-1.00581e+07,-2.40334e+07L-1.00581e+07,-2.40337e+07L-1.00583e+07,-2.40337e+07L-1.00583e+07,-2.40334e+07ZM-1.00578e+07,-2.40334e+07L-1.00575e+07,-2.40334e+07L-1.00575e+07,-2.40337e+07L-1.00578e+07,-2.40337e+07L-1.00578e+07,-2.40334e+07Z" style="fill-rule:nonzero;"/>
            </g>
            <g transform="matrix(0.002359,0,0,0.00235333,24850.6,59205)">
                <path d="M-1.00581e+07,-2.4033e+07L-1.00577e+07,-2.4033e+07L-1.00577e+07,-2.40332e+07L-1.00581e+07,-2.40332e+07L-1.00581e+07,-2.40335e+07L-1.00583e+07,-2.40335e+07L-1.00583e+07,-2.40332e+07L-1.00586e+07,-2.40331e+07L-1.00586e+07,-2.4033e+07L-1.00583e+07,-2.4033e+07L-1.00583e+07,-2.4032e+07C-1.00583e+07,-2.40317e+07 -1.00582e+07,-2.40315e+07 -1.00579e+07,-2.40315e+07C-1.00578e+07,-2.40315e+07 -1.00577e+07,-2.40316e+07 -1.00576e+07,-2.40316e+07L-1.00576e+07,-2.40318e+07C-1.00577e+07,-2.40318e+07 -1.00578e+07,-2.40318e+07 -1.00579e+07,-2.40318e+07C-1.00581e+07,-2.40318e+07 -1.00581e+07,-2.40318e+07 -1.00581e+07,-2.4032e+07L-1.00581e+07,-2.4033e+07Z" style="fill-rule:nonzero;"/>
            </g>
            <g transform="matrix(0.002359,0,0,0.00235333,24853.5,59205)">
                <path d="M-1.00581e+07,-2.4033e+07L-1.00577e+07,-2.4033e+07L-1.00577e+07,-2.40332e+07L-1.00581e+07,-2.40332e+07L-1.00581e+07,-2.40335e+07L-1.00583e+07,-2.40335e+07L-1.00583e+07,-2.40332e+07L-1.00586e+07,-2.40331e+07L-1.00586e+07,-2.4033e+07L-1.00583e+07,-2.4033e+07L-1.00583e+07,-2.4032e+07C-1.00583e+07,-2.40317e+07 -1.00582e+07,-2.40315e+07 -1.00579e+07,-2.40315e+07C-1.00578e+07,-2.40315e+07 -1.00577e+07,-2.40316e+07 -1.00576e+07,-2.40316e+07L-1.00576e+07,-2.40318e+07C-1.00577e+07,-2.40318e+07 -1.00578e+07,-2.40318e+07 -1.00579e+07,-2.40318e+07C-1.00581e+07,-2.40318e+07 -1.00581e+07,-2.40318e+07 -1.00581e+07,-2.4032e+07L-1.00581e+07,-2.4033e+07Z" style="fill-rule:nonzero;"/>
            </g>
            <g transform="matrix(0.002359,0,0,0.00235333,24856.4,59205)">
                <path d="M-1.00581e+07,-2.40317e+07C-1.00582e+07,-2.40317e+07 -1.00584e+07,-2.40318e+07 -1.00585e+07,-2.40319e+07L-1.00586e+07,-2.40317e+07C-1.00585e+07,-2.40316e+07 -1.00583e+07,-2.40315e+07 -1.00581e+07,-2.40315e+07C-1.00577e+07,-2.40315e+07 -1.00575e+07,-2.40317e+07 -1.00575e+07,-2.4032e+07C-1.00575e+07,-2.40324e+07 -1.00577e+07,-2.40324e+07 -1.0058e+07,-2.40325e+07C-1.00582e+07,-2.40325e+07 -1.00583e+07,-2.40326e+07 -1.00583e+07,-2.40327e+07C-1.00583e+07,-2.40329e+07 -1.00582e+07,-2.4033e+07 -1.0058e+07,-2.4033e+07C-1.00579e+07,-2.4033e+07 -1.00578e+07,-2.40329e+07 -1.00577e+07,-2.40329e+07L-1.00576e+07,-2.40331e+07C-1.00577e+07,-2.40331e+07 -1.00579e+07,-2.40332e+07 -1.0058e+07,-2.40332e+07C-1.00583e+07,-2.40332e+07 -1.00586e+07,-2.4033e+07 -1.00586e+07,-2.40327e+07C-1.00586e+07,-2.40324e+07 -1.00583e+07,-2.40324e+07 -1.00581e+07,-2.40323e+07C-1.00579e+07,-2.40322e+07 -1.00577e+07,-2.40322e+07 -1.00577e+07,-2.4032e+07C-1.00577e+07,-2.40318e+07 -1.00578e+07,-2.40317e+07 -1.00581e+07,-2.40317e+07Z" style="fill-rule:nonzero;"/>
            </g>
            <g transform="matrix(0.002359,0,0,0.00235333,24859.4,59205)">
                <path d="M-1.00583e+07,-2.40315e+07L-1.00581e+07,-2.40315e+07L-1.00581e+07,-2.4033e+07L-1.00577e+07,-2.4033e+07L-1.00577e+07,-2.40332e+07L-1.00581e+07,-2.40332e+07L-1.00581e+07,-2.40333e+07C-1.00581e+07,-2.40334e+07 -1.0058e+07,-2.40336e+07 -1.00578e+07,-2.40336e+07C-1.00578e+07,-2.40336e+07 -1.00577e+07,-2.40335e+07 -1.00577e+07,-2.40335e+07L-1.00576e+07,-2.40337e+07C-1.00577e+07,-2.40338e+07 -1.00578e+07,-2.40338e+07 -1.00579e+07,-2.40338e+07C-1.00582e+07,-2.40338e+07 -1.00583e+07,-2.40336e+07 -1.00583e+07,-2.40332e+07L-1.00583e+07,-2.40332e+07L-1.00586e+07,-2.40331e+07L-1.00586e+07,-2.4033e+07L-1.00583e+07,-2.4033e+07L-1.00583e+07,-2.40315e+07Z" style="fill-rule:nonzero;"/>
            </g>
            <g transform="matrix(0.002359,0,0,0.00235333,24862,59205)">
                <path d="M-1.00583e+07,-2.40326e+07C-1.00583e+07,-2.40328e+07 -1.00582e+07,-2.4033e+07 -1.0058e+07,-2.4033e+07C-1.00577e+07,-2.4033e+07 -1.00576e+07,-2.40328e+07 -1.00576e+07,-2.40326e+07L-1.00576e+07,-2.40322e+07C-1.00576e+07,-2.40319e+07 -1.00577e+07,-2.40317e+07 -1.0058e+07,-2.40317e+07C-1.00582e+07,-2.40317e+07 -1.00583e+07,-2.40319e+07 -1.00583e+07,-2.40322e+07L-1.00583e+07,-2.40326e+07ZM-1.00585e+07,-2.40321e+07C-1.00585e+07,-2.40318e+07 -1.00584e+07,-2.40315e+07 -1.0058e+07,-2.40315e+07C-1.00575e+07,-2.40315e+07 -1.00574e+07,-2.40317e+07 -1.00574e+07,-2.40321e+07L-1.00574e+07,-2.40326e+07C-1.00574e+07,-2.4033e+07 -1.00575e+07,-2.40332e+07 -1.0058e+07,-2.40332e+07C-1.00584e+07,-2.40332e+07 -1.00585e+07,-2.4033e+07 -1.00585e+07,-2.40326e+07L-1.00585e+07,-2.40321e+07ZM-1.00583e+07,-2.40334e+07L-1.00581e+07,-2.40334e+07L-1.00581e+07,-2.40337e+07L-1.00583e+07,-2.40337e+07L-1.00583e+07,-2.40334e+07ZM-1.00578e+07,-2.40334e+07L-1.00575e+07,-2.40334e+07L-1.00575e+07,-2.40337e+07L-1.00578e+07,-2.40337e+07L-1.00578e+07,-2.40334e+07Z" style="fill-rule:nonzero;"/>
            </g>
            <g transform="matrix(0.002359,0,0,0.00235333,24865.6,59205)">
                <path d="M-1.00578e+07,-2.4033e+07C-1.00578e+07,-2.4033e+07 -1.00578e+07,-2.4033e+07 -1.00577e+07,-2.40329e+07L-1.00577e+07,-2.40332e+07C-1.00577e+07,-2.40332e+07 -1.00578e+07,-2.40332e+07 -1.00578e+07,-2.40332e+07C-1.0058e+07,-2.40332e+07 -1.00582e+07,-2.4033e+07 -1.00583e+07,-2.40329e+07L-1.00583e+07,-2.40332e+07L-1.00585e+07,-2.40332e+07L-1.00585e+07,-2.40315e+07L-1.00582e+07,-2.40315e+07L-1.00582e+07,-2.40327e+07C-1.00582e+07,-2.40328e+07 -1.0058e+07,-2.4033e+07 -1.00578e+07,-2.4033e+07Z" style="fill-rule:nonzero;"/>
            </g>
            <g transform="matrix(0.002359,0,0,0.00235333,24868.1,59205)">
                <path d="M-1.00574e+07,-2.40326e+07C-1.00574e+07,-2.4033e+07 -1.00576e+07,-2.40332e+07 -1.0058e+07,-2.40332e+07C-1.00584e+07,-2.40332e+07 -1.00585e+07,-2.4033e+07 -1.00585e+07,-2.40326e+07L-1.00585e+07,-2.40321e+07C-1.00585e+07,-2.40317e+07 -1.00583e+07,-2.40315e+07 -1.0058e+07,-2.40315e+07C-1.00578e+07,-2.40315e+07 -1.00576e+07,-2.40316e+07 -1.00574e+07,-2.40317e+07L-1.00575e+07,-2.40319e+07C-1.00576e+07,-2.40318e+07 -1.00578e+07,-2.40317e+07 -1.0058e+07,-2.40317e+07C-1.00582e+07,-2.40317e+07 -1.00583e+07,-2.40319e+07 -1.00583e+07,-2.4032e+07L-1.00583e+07,-2.40323e+07L-1.00574e+07,-2.40323e+07L-1.00574e+07,-2.40326e+07ZM-1.00583e+07,-2.40325e+07L-1.00583e+07,-2.40326e+07C-1.00583e+07,-2.40328e+07 -1.00582e+07,-2.4033e+07 -1.0058e+07,-2.4033e+07C-1.00577e+07,-2.4033e+07 -1.00576e+07,-2.40328e+07 -1.00576e+07,-2.40326e+07L-1.00576e+07,-2.40325e+07L-1.00583e+07,-2.40325e+07Z" style="fill-rule:nonzero;"/>
            </g>
            <g transform="matrix(0.002359,0,0,0.00235333,24871.5,59205)">
                <path d="M-1.00582e+07,-2.40328e+07C-1.00582e+07,-2.40329e+07 -1.0058e+07,-2.4033e+07 -1.00579e+07,-2.4033e+07C-1.00576e+07,-2.4033e+07 -1.00575e+07,-2.40329e+07 -1.00575e+07,-2.40326e+07L-1.00575e+07,-2.40315e+07L-1.00573e+07,-2.40315e+07L-1.00573e+07,-2.40326e+07C-1.00573e+07,-2.40329e+07 -1.00574e+07,-2.40332e+07 -1.00578e+07,-2.40332e+07C-1.0058e+07,-2.40332e+07 -1.00582e+07,-2.4033e+07 -1.00583e+07,-2.4033e+07L-1.00583e+07,-2.40332e+07L-1.00585e+07,-2.40332e+07L-1.00585e+07,-2.40315e+07L-1.00582e+07,-2.40315e+07L-1.00582e+07,-2.40328e+07Z" style="fill-rule:nonzero;"/>
            </g>
            <g transform="matrix(0.002359,0,0,0.00235333,24875.4,59205)">
                <path d="M-1.00585e+07,-2.40315e+07L-1.00582e+07,-2.40315e+07L-1.00582e+07,-2.40332e+07L-1.00585e+07,-2.40332e+07L-1.00585e+07,-2.40315e+07ZM-1.00585e+07,-2.40334e+07L-1.00582e+07,-2.40334e+07L-1.00582e+07,-2.40337e+07L-1.00585e+07,-2.40337e+07L-1.00585e+07,-2.40334e+07Z" style="fill-rule:nonzero;"/>
            </g>
            <g transform="matrix(0.002359,0,0,0.00235333,24877.1,59205)">
                <path d="M-1.00582e+07,-2.40328e+07C-1.00582e+07,-2.40329e+07 -1.0058e+07,-2.4033e+07 -1.00579e+07,-2.4033e+07C-1.00576e+07,-2.4033e+07 -1.00575e+07,-2.40329e+07 -1.00575e+07,-2.40326e+07L-1.00575e+07,-2.40315e+07L-1.00573e+07,-2.40315e+07L-1.00573e+07,-2.40326e+07C-1.00573e+07,-2.40329e+07 -1.00574e+07,-2.40332e+07 -1.00578e+07,-2.40332e+07C-1.0058e+07,-2.40332e+07 -1.00582e+07,-2.4033e+07 -1.00583e+07,-2.4033e+07L-1.00583e+07,-2.40332e+07L-1.00585e+07,-2.40332e+07L-1.00585e+07,-2.40315e+07L-1.00582e+07,-2.40315e+07L-1.00582e+07,-2.40328e+07Z" style="fill-rule:nonzero;"/>
            </g>
            <g transform="matrix(0.002359,0,0,0.00235333,24881,59205)">
                <path d="M-1.00574e+07,-2.40332e+07L-1.00575e+07,-2.40332e+07L-1.00576e+07,-2.4033e+07C-1.00577e+07,-2.40331e+07 -1.00578e+07,-2.40332e+07 -1.0058e+07,-2.40332e+07C-1.00584e+07,-2.40332e+07 -1.00585e+07,-2.4033e+07 -1.00585e+07,-2.40326e+07L-1.00585e+07,-2.40321e+07C-1.00585e+07,-2.40317e+07 -1.00584e+07,-2.40315e+07 -1.0058e+07,-2.40315e+07C-1.00578e+07,-2.40315e+07 -1.00577e+07,-2.40316e+07 -1.00576e+07,-2.40317e+07L-1.00576e+07,-2.40316e+07C-1.00576e+07,-2.40313e+07 -1.00577e+07,-2.40311e+07 -1.0058e+07,-2.40311e+07C-1.00581e+07,-2.40311e+07 -1.00583e+07,-2.40312e+07 -1.00584e+07,-2.40312e+07L-1.00584e+07,-2.4031e+07C-1.00583e+07,-2.4031e+07 -1.00581e+07,-2.40309e+07 -1.0058e+07,-2.40309e+07C-1.00575e+07,-2.40309e+07 -1.00574e+07,-2.40313e+07 -1.00574e+07,-2.40316e+07L-1.00574e+07,-2.40332e+07ZM-1.00576e+07,-2.40319e+07C-1.00577e+07,-2.40318e+07 -1.00578e+07,-2.40317e+07 -1.0058e+07,-2.40317e+07C-1.00582e+07,-2.40317e+07 -1.00583e+07,-2.40319e+07 -1.00583e+07,-2.40322e+07L-1.00583e+07,-2.40326e+07C-1.00583e+07,-2.40328e+07 -1.00582e+07,-2.4033e+07 -1.0058e+07,-2.4033e+07C-1.00578e+07,-2.4033e+07 -1.00577e+07,-2.40329e+07 -1.00576e+07,-2.40328e+07L-1.00576e+07,-2.40319e+07Z" style="fill-rule:nonzero;"/>
            </g>
            <g transform="matrix(0.002359,0,0,0.00235333,24884.6,59205)">
                <path d="M-1.00574e+07,-2.40326e+07C-1.00574e+07,-2.4033e+07 -1.00576e+07,-2.40332e+07 -1.0058e+07,-2.40332e+07C-1.00584e+07,-2.40332e+07 -1.00585e+07,-2.4033e+07 -1.00585e+07,-2.40326e+07L-1.00585e+07,-2.40321e+07C-1.00585e+07,-2.40317e+07 -1.00583e+07,-2.40315e+07 -1.0058e+07,-2.40315e+07C-1.00578e+07,-2.40315e+07 -1.00576e+07,-2.40316e+07 -1.00574e+07,-2.40317e+07L-1.00575e+07,-2.40319e+07C-1.00576e+07,-2.40318e+07 -1.00578e+07,-2.40317e+07 -1.0058e+07,-2.40317e+07C-1.00582e+07,-2.40317e+07 -1.00583e+07,-2.40319e+07 -1.00583e+07,-2.4032e+07L-1.00583e+07,-2.40323e+07L-1.00574e+07,-2.40323e+07L-1.00574e+07,-2.40326e+07ZM-1.00583e+07,-2.40325e+07L-1.00583e+07,-2.40326e+07C-1.00583e+07,-2.40328e+07 -1.00582e+07,-2.4033e+07 -1.0058e+07,-2.4033e+07C-1.00577e+07,-2.4033e+07 -1.00576e+07,-2.40328e+07 -1.00576e+07,-2.40326e+07L-1.00576e+07,-2.40325e+07L-1.00583e+07,-2.40325e+07Z" style="fill-rule:nonzero;"/>
            </g>
            <g transform="matrix(0.002359,0,0,0.00235333,24888.1,59205)">
                <path d="M-1.00582e+07,-2.40328e+07C-1.00582e+07,-2.40329e+07 -1.0058e+07,-2.4033e+07 -1.00579e+07,-2.4033e+07C-1.00576e+07,-2.4033e+07 -1.00575e+07,-2.40329e+07 -1.00575e+07,-2.40326e+07L-1.00575e+07,-2.40315e+07L-1.00573e+07,-2.40315e+07L-1.00573e+07,-2.40326e+07C-1.00573e+07,-2.40329e+07 -1.00574e+07,-2.40332e+07 -1.00578e+07,-2.40332e+07C-1.0058e+07,-2.40332e+07 -1.00582e+07,-2.4033e+07 -1.00583e+07,-2.4033e+07L-1.00583e+07,-2.40332e+07L-1.00585e+07,-2.40332e+07L-1.00585e+07,-2.40315e+07L-1.00582e+07,-2.40315e+07L-1.00582e+07,-2.40328e+07Z" style="fill-rule:nonzero;"/>
            </g>
            <g transform="matrix(0.002359,0,0,0.00235333,58307.6,139035)">
                <path d="M-2.42538e+07,-5.79472e+07L-2.42521e+07,-5.79472e+07C-2.42512e+07,-5.79472e+07 -2.42505e+07,-5.79481e+07 -2.42505e+07,-5.79497e+07C-2.42505e+07,-5.79513e+07 -2.42512e+07,-5.79521e+07 -2.42523e+07,-5.79521e+07L-2.42538e+07,-5.79521e+07L-2.42538e+07,-5.79472e+07ZM-2.42532e+07,-5.79516e+07L-2.42524e+07,-5.79516e+07C-2.42513e+07,-5.79516e+07 -2.42511e+07,-5.79506e+07 -2.42511e+07,-5.79497e+07C-2.42511e+07,-5.79487e+07 -2.42513e+07,-5.79477e+07 -2.42524e+07,-5.79477e+07L-2.42532e+07,-5.79477e+07L-2.42532e+07,-5.79516e+07Z" style="fill-rule:nonzero;"/>
            </g>
            <g transform="matrix(0.002359,0,0,0.00235333,58318.2,139035)">
                <path d="M-2.42536e+07,-5.79496e+07C-2.42536e+07,-5.79503e+07 -2.42533e+07,-5.79506e+07 -2.42527e+07,-5.79506e+07C-2.42521e+07,-5.79506e+07 -2.42518e+07,-5.79503e+07 -2.42518e+07,-5.79496e+07L-2.42518e+07,-5.79486e+07C-2.42518e+07,-5.79479e+07 -2.42521e+07,-5.79476e+07 -2.42527e+07,-5.79476e+07C-2.42533e+07,-5.79476e+07 -2.42536e+07,-5.79479e+07 -2.42536e+07,-5.79486e+07L-2.42536e+07,-5.79496e+07ZM-2.42541e+07,-5.79486e+07C-2.42541e+07,-5.79477e+07 -2.42537e+07,-5.79471e+07 -2.42527e+07,-5.79471e+07C-2.42517e+07,-5.79471e+07 -2.42513e+07,-5.79476e+07 -2.42513e+07,-5.79486e+07L-2.42513e+07,-5.79496e+07C-2.42513e+07,-5.79506e+07 -2.42517e+07,-5.79511e+07 -2.42527e+07,-5.79511e+07C-2.42537e+07,-5.79511e+07 -2.42541e+07,-5.79506e+07 -2.42541e+07,-5.79496e+07L-2.42541e+07,-5.79486e+07Z" style="fill-rule:nonzero;"/>
            </g>
            <g transform="matrix(0.002359,0,0,0.00235333,58326.8,139035)">
                <path d="M-2.42539e+07,-5.79472e+07L-2.42534e+07,-5.79472e+07L-2.42534e+07,-5.7949e+07L-2.42528e+07,-5.7949e+07L-2.42518e+07,-5.79472e+07L-2.42512e+07,-5.79472e+07L-2.42524e+07,-5.79493e+07L-2.42512e+07,-5.79511e+07L-2.42519e+07,-5.79511e+07L-2.42529e+07,-5.79495e+07L-2.42534e+07,-5.79495e+07L-2.42534e+07,-5.79525e+07L-2.42539e+07,-5.79525e+07L-2.42539e+07,-5.79472e+07Z" style="fill-rule:nonzero;"/>
            </g>
            <g transform="matrix(0.002359,0,0,0.00235333,58335.2,139035)">
                <path d="M-2.42531e+07,-5.79506e+07L-2.4252e+07,-5.79506e+07L-2.4252e+07,-5.79511e+07L-2.42531e+07,-5.79511e+07L-2.42531e+07,-5.79519e+07L-2.42536e+07,-5.79518e+07L-2.42536e+07,-5.79511e+07L-2.42543e+07,-5.7951e+07L-2.42543e+07,-5.79506e+07L-2.42536e+07,-5.79506e+07L-2.42536e+07,-5.79483e+07C-2.42536e+07,-5.79475e+07 -2.42534e+07,-5.79471e+07 -2.42525e+07,-5.79471e+07C-2.42523e+07,-5.79471e+07 -2.42521e+07,-5.79472e+07 -2.42518e+07,-5.79473e+07L-2.42519e+07,-5.79477e+07C-2.4252e+07,-5.79477e+07 -2.42523e+07,-5.79477e+07 -2.42525e+07,-5.79477e+07C-2.42529e+07,-5.79477e+07 -2.42531e+07,-5.79479e+07 -2.42531e+07,-5.79483e+07L-2.42531e+07,-5.79506e+07Z" style="fill-rule:nonzero;"/>
            </g>
            <g transform="matrix(0.002359,0,0,0.00235333,58342.1,139035)">
                <path d="M-2.42536e+07,-5.79496e+07C-2.42536e+07,-5.79503e+07 -2.42533e+07,-5.79506e+07 -2.42527e+07,-5.79506e+07C-2.42521e+07,-5.79506e+07 -2.42518e+07,-5.79503e+07 -2.42518e+07,-5.79496e+07L-2.42518e+07,-5.79486e+07C-2.42518e+07,-5.79479e+07 -2.42521e+07,-5.79476e+07 -2.42527e+07,-5.79476e+07C-2.42533e+07,-5.79476e+07 -2.42536e+07,-5.79479e+07 -2.42536e+07,-5.79486e+07L-2.42536e+07,-5.79496e+07ZM-2.42541e+07,-5.79486e+07C-2.42541e+07,-5.79477e+07 -2.42537e+07,-5.79471e+07 -2.42527e+07,-5.79471e+07C-2.42517e+07,-5.79471e+07 -2.42513e+07,-5.79476e+07 -2.42513e+07,-5.79486e+07L-2.42513e+07,-5.79496e+07C-2.42513e+07,-5.79506e+07 -2.42517e+07,-5.79511e+07 -2.42527e+07,-5.79511e+07C-2.42537e+07,-5.79511e+07 -2.42541e+07,-5.79506e+07 -2.42541e+07,-5.79496e+07L-2.42541e+07,-5.79486e+07Z" style="fill-rule:nonzero;"/>
            </g>
            <g transform="matrix(0.002359,0,0,0.00235333,58350.6,139035)">
                <path d="M-2.42524e+07,-5.79506e+07C-2.42523e+07,-5.79506e+07 -2.42522e+07,-5.79506e+07 -2.42521e+07,-5.79505e+07L-2.4252e+07,-5.79511e+07C-2.42521e+07,-5.79511e+07 -2.42522e+07,-5.79511e+07 -2.42523e+07,-5.79511e+07C-2.42529e+07,-5.79511e+07 -2.42533e+07,-5.79506e+07 -2.42534e+07,-5.79504e+07L-2.42535e+07,-5.79511e+07L-2.42539e+07,-5.79511e+07L-2.42539e+07,-5.79472e+07L-2.42534e+07,-5.79472e+07L-2.42534e+07,-5.79499e+07C-2.42532e+07,-5.79503e+07 -2.42528e+07,-5.79506e+07 -2.42524e+07,-5.79506e+07Z" style="fill-rule:nonzero;"/>
            </g>
            <g transform="matrix(0.002359,0,0,0.00235333,58361.3,139035)">
                <path d="M-2.42538e+07,-5.79472e+07L-2.42513e+07,-5.79472e+07L-2.42513e+07,-5.79477e+07L-2.42532e+07,-5.79477e+07L-2.42532e+07,-5.79521e+07L-2.42538e+07,-5.79521e+07L-2.42538e+07,-5.79472e+07Z" style="fill-rule:nonzero;"/>
            </g>
            <g transform="matrix(0.002359,0,0,0.00235333,58369.5,139035)">
                <path d="M-2.42539e+07,-5.79472e+07L-2.42533e+07,-5.79472e+07L-2.42533e+07,-5.79511e+07L-2.42539e+07,-5.79511e+07L-2.42539e+07,-5.79472e+07ZM-2.42539e+07,-5.79516e+07L-2.42533e+07,-5.79516e+07L-2.42533e+07,-5.79524e+07L-2.42539e+07,-5.79524e+07L-2.42539e+07,-5.79516e+07Z" style="fill-rule:nonzero;"/>
            </g>
            <g transform="matrix(0.002359,0,0,0.00235333,58373.6,139035)">
                <path d="M-2.42534e+07,-5.79501e+07C-2.42532e+07,-5.79503e+07 -2.42528e+07,-5.79506e+07 -2.42525e+07,-5.79506e+07C-2.4252e+07,-5.79506e+07 -2.42517e+07,-5.79503e+07 -2.42517e+07,-5.79496e+07L-2.42517e+07,-5.79472e+07L-2.42511e+07,-5.79472e+07L-2.42511e+07,-5.79498e+07C-2.42511e+07,-5.79505e+07 -2.42514e+07,-5.79511e+07 -2.42523e+07,-5.79511e+07C-2.42529e+07,-5.79511e+07 -2.42533e+07,-5.79508e+07 -2.42534e+07,-5.79506e+07L-2.42535e+07,-5.79511e+07L-2.42539e+07,-5.79511e+07L-2.42539e+07,-5.79472e+07L-2.42534e+07,-5.79472e+07L-2.42534e+07,-5.79501e+07Z" style="fill-rule:nonzero;"/>
            </g>
            <g transform="matrix(0.002359,0,0,0.00235333,58382.9,139035)">
                <path d="M-2.42513e+07,-5.79525e+07L-2.42519e+07,-5.79525e+07L-2.42519e+07,-5.79507e+07C-2.4252e+07,-5.79509e+07 -2.42524e+07,-5.79511e+07 -2.42528e+07,-5.79511e+07C-2.42537e+07,-5.79511e+07 -2.42541e+07,-5.79506e+07 -2.42541e+07,-5.79496e+07L-2.42541e+07,-5.79486e+07C-2.42541e+07,-5.79476e+07 -2.42537e+07,-5.79471e+07 -2.42528e+07,-5.79471e+07C-2.42524e+07,-5.79471e+07 -2.4252e+07,-5.79473e+07 -2.42518e+07,-5.79475e+07L-2.42517e+07,-5.79472e+07L-2.42513e+07,-5.79472e+07L-2.42513e+07,-5.79525e+07ZM-2.42519e+07,-5.7948e+07C-2.4252e+07,-5.79478e+07 -2.42523e+07,-5.79476e+07 -2.42527e+07,-5.79476e+07C-2.42533e+07,-5.79476e+07 -2.42536e+07,-5.79479e+07 -2.42536e+07,-5.79486e+07L-2.42536e+07,-5.79496e+07C-2.42536e+07,-5.79503e+07 -2.42533e+07,-5.79506e+07 -2.42527e+07,-5.79506e+07C-2.42523e+07,-5.79506e+07 -2.4252e+07,-5.79504e+07 -2.42519e+07,-5.79502e+07L-2.42519e+07,-5.7948e+07Z" style="fill-rule:nonzero;"/>
            </g>
            <g transform="matrix(0.002359,0,0,0.00235333,58391.8,139035)">
                <path d="M-2.42534e+07,-5.79501e+07C-2.42532e+07,-5.79503e+07 -2.42528e+07,-5.79506e+07 -2.42524e+07,-5.79506e+07C-2.42519e+07,-5.79506e+07 -2.42516e+07,-5.79503e+07 -2.42516e+07,-5.79496e+07L-2.42516e+07,-5.79472e+07L-2.42511e+07,-5.79472e+07L-2.42511e+07,-5.79498e+07C-2.42511e+07,-5.79505e+07 -2.42514e+07,-5.79511e+07 -2.42522e+07,-5.79511e+07C-2.42528e+07,-5.79511e+07 -2.42532e+07,-5.79508e+07 -2.42534e+07,-5.79506e+07L-2.42534e+07,-5.79525e+07L-2.42539e+07,-5.79525e+07L-2.42539e+07,-5.79472e+07L-2.42534e+07,-5.79472e+07L-2.42534e+07,-5.79501e+07Z" style="fill-rule:nonzero;"/>
            </g>
            <g transform="matrix(0.002359,0,0,0.00235333,1203.59,2679.24)">
                <path d="M-47618,-15095C-35307,-19032 -17256,-15790 -6158,-11272C-498,-8968 9473,-6814 15987,-5626" style="fill:none;stroke:black;stroke-width:394.47px;"/>
            </g>
            <g transform="matrix(0.002359,0,0,0.00235333,1185.44,2676.62)">
                <rect x="-3611" y="-21819" width="1975" height="1665" style="fill:none;stroke:black;stroke-width:394.47px;"/>
            </g>
            <g transform="matrix(0.002359,0,0,0.00235333,1190.1,2676.62)">
                <rect x="-3611" y="-21819" width="1975" height="1665" style="fill:none;stroke:black;stroke-width:394.47px;"/>
            </g>
            <g transform="matrix(0.002359,0,0,0.00235333,1185.44,2683.14)">
                <rect x="-3611" y="-21819" width="1975" height="1665" style="fill:none;stroke:black;stroke-width:394.47px;"/>
            </g>
            <g transform="matrix(0.002359,0,0,0.00235333,1190.1,2683.14)">
                <rect x="-3611" y="-21819" width="1975" height="1665" style="fill:none;stroke:black;stroke-width:394.47px;"/>
            </g>
            <g transform="matrix(0.002359,0,0,0.00235333,1185.44,2689.67)">
                <rect x="-3611" y="-21819" width="1975" height="1665" style="fill:none;stroke:black;stroke-width:394.47px;"/>
            </g>
            <g transform="matrix(0.002359,0,0,0.00235333,1190.1,2689.67)">
                <rect x="-3611" y="-21819" width="1975" height="1665" style="fill:none;stroke:black;stroke-width:394.47px;"/>
            </g>
            <g transform="matrix(0.002359,0,0,0.00235333,1177.43,2663.39)">
                <path d="M-9443,-8708L-9443,-21071L-2846,-19755L-2846,-7167" style="fill:none;stroke:black;stroke-width:394.47px;"/>
            </g>
            <g transform="matrix(0.002359,0,0,0.00235333,1166.68,2672.12)">
                <rect x="-3611" y="-21819" width="1975" height="1665" style="fill:none;stroke:black;stroke-width:394.47px;"/>
            </g>
            <g transform="matrix(0.002359,0,0,0.00235333,1171.34,2672.12)">
                <rect x="-3611" y="-21819" width="1975" height="1665" style="fill:none;stroke:black;stroke-width:394.47px;"/>
            </g>
            <g transform="matrix(0.002359,0,0,0.00235333,1166.68,2678.65)">
                <rect x="-3611" y="-21819" width="1975" height="1665" style="fill:none;stroke:black;stroke-width:394.47px;"/>
            </g>
            <g transform="matrix(0.002359,0,0,0.00235333,1171.34,2678.65)">
                <rect x="-3611" y="-21819" width="1975" height="1665" style="fill:none;stroke:black;stroke-width:394.47px;"/>
            </g>
            <g transform="matrix(0.002359,0,0,0.00235333,1166.68,2685.17)">
                <rect x="-3611" y="-21819" width="1975" height="1665" style="fill:none;stroke:black;stroke-width:394.47px;"/>
            </g>
            <g transform="matrix(0.002359,0,0,0.00235333,1171.34,2685.17)">
                <rect x="-3611" y="-21819" width="1975" height="1665" style="fill:none;stroke:black;stroke-width:394.47px;"/>
            </g>
            <g transform="matrix(0.002359,0,0,0.00235333,1204.29,2685.86)">
                <rect x="-3611" y="-21819" width="1975" height="1665" style="fill:none;stroke:black;stroke-width:394.47px;"/>
            </g>
            <g transform="matrix(0.002359,0,0,0.00235333,1208.95,2685.86)">
                <rect x="-3611" y="-21819" width="1975" height="1665" style="fill:none;stroke:black;stroke-width:394.47px;"/>
            </g>
            <g transform="matrix(0.002359,0,0,0.00235333,1204.29,2692.38)">
                <rect x="-3611" y="-21819" width="1975" height="1665" style="fill:none;stroke:black;stroke-width:394.47px;"/>
            </g>
            <g transform="matrix(0.002359,0,0,0.00235333,1208.95,2692.38)">
                <rect x="-3611" y="-21819" width="1975" height="1665" style="fill:none;stroke:black;stroke-width:394.47px;"/>
            </g>
            <g transform="matrix(0.002359,0,0,0.00235333,1204.29,2698.91)">
                <rect x="-3611" y="-21819" width="1975" height="1665" style="fill:none;stroke:black;stroke-width:394.47px;"/>
            </g>
            <g transform="matrix(0.002359,0,0,0.00235333,1208.95,2698.91)">
                <rect x="-3611" y="-21819" width="1975" height="1665" style="fill:none;stroke:black;stroke-width:394.47px;"/>
            </g>
            <g transform="matrix(0.002359,0,0,0.00235333,1223.15,2689.95)">
                <rect x="-3611" y="-21819" width="1975" height="1665" style="fill:none;stroke:black;stroke-width:394.47px;"/>
            </g>
            <g transform="matrix(0.002359,0,0,0.00235333,1227.8,2689.95)">
                <rect x="-3611" y="-21819" width="1975" height="1665" style="fill:none;stroke:black;stroke-width:394.47px;"/>
            </g>
            <g transform="matrix(0.002359,0,0,0.00235333,1223.15,2696.48)">
                <rect x="-3611" y="-21819" width="1975" height="1665" style="fill:none;stroke:black;stroke-width:394.47px;"/>
            </g>
            <g transform="matrix(0.002359,0,0,0.00235333,1227.8,2696.48)">
                <rect x="-3611" y="-21819" width="1975" height="1665" style="fill:none;stroke:black;stroke-width:394.47px;"/>
            </g>
            <g transform="matrix(0.002359,0,0,0.00235333,1223.15,2703.01)">
                <rect x="-3611" y="-21819" width="1975" height="1665" style="fill:none;stroke:black;stroke-width:394.47px;"/>
            </g>
            <g transform="matrix(0.002359,0,0,0.00235333,1227.8,2703.01)">
                <rect x="-3611" y="-21819" width="1975" height="1665" style="fill:none;stroke:black;stroke-width:394.47px;"/>
            </g>
        </g>
    </g>
</svg>
